<svg width="160" height="37" viewBox="0 0 160 37" fill="none" xmlns="http://www.w3.org/2000/svg">
<path fill-rule="evenodd" clip-rule="evenodd" d="M153.848 5.46477V35.8691H150.718V5.46477H145.152V2.08651H159.413V5.46477H153.848ZM141.796 23.3454C141.251 24.2945 140.567 24.9702 139.744 25.3724C138.921 25.7745 137.941 25.9756 136.805 25.9756C136.271 25.9756 135.668 25.9274 134.996 25.8308C134.323 25.7343 133.767 25.6217 133.326 25.493V35.8691H130.196V2.5691C131.077 2.21519 131.964 1.96584 132.857 1.82106C133.75 1.67627 134.718 1.60388 135.761 1.60388C137.152 1.60388 138.335 1.80497 139.309 2.20714C140.283 2.60932 141.071 3.27693 141.674 4.20997C142.277 5.14301 142.718 6.38171 142.996 7.92606C143.274 9.4704 143.413 11.3848 143.413 13.6691C143.413 16.0178 143.28 17.9804 143.013 19.5569C142.747 21.1334 142.341 22.3963 141.796 23.3454ZM140.022 9.3256C139.848 8.16733 139.576 7.25038 139.205 6.57473C138.834 5.89907 138.364 5.42451 137.796 5.15103C137.228 4.87755 136.55 4.74081 135.761 4.74081H133.326V22.5973H135.761C136.55 22.5973 137.228 22.4606 137.796 22.1871C138.364 21.9136 138.834 21.4391 139.205 20.7634C139.576 20.0878 139.848 19.1708 140.022 18.0126C140.196 16.8543 140.283 15.4065 140.283 13.6691C140.283 11.9317 140.196 10.4839 140.022 9.3256ZM122.37 27.1822H115.413L113.848 35.8691H110.718L116.631 2.08651H121.152L127.066 35.8691H123.935L122.37 27.1822ZM118.961 6.91255H118.822L115.935 23.8039H121.848L118.961 6.91255ZM103.935 10.7735H103.761L98.7177 31.5256H95.5872L90.5438 10.7735H90.3699L89.3264 35.8691H86.1959L87.5872 2.08651H91.4133L97.0829 25.2517H97.222L102.892 2.08651H106.718L108.109 35.8691H104.979L103.935 10.7735ZM80.5612 32.7321C79.9119 34.0513 79.1293 34.9843 78.2133 35.5313C77.2974 36.0782 76.2481 36.3517 75.0655 36.3517C73.8829 36.3517 72.8336 36.0782 71.9177 35.5313C71.0018 34.9843 70.2191 34.0513 69.5699 32.7321C68.9206 31.413 68.4278 29.6354 68.0916 27.3993C67.7554 25.1632 67.5873 22.3561 67.5873 18.9778C67.5873 15.5995 67.7554 12.7924 68.0916 10.5563C68.4278 8.32019 68.9206 6.54258 69.5699 5.22345C70.2191 3.90432 71.0018 2.97127 71.9177 2.42432C72.8336 1.87736 73.8829 1.60388 75.0655 1.60388C76.2481 1.60388 77.2974 1.87736 78.2133 2.42432C79.1293 2.97127 79.9119 3.90432 80.5612 5.22345C81.2105 6.54258 81.7032 8.32019 82.0394 10.5563C82.3757 12.7924 82.5438 15.5995 82.5438 18.9778C82.5438 22.3561 82.3757 25.1632 82.0394 27.3993C81.7032 29.6354 81.2105 31.413 80.5612 32.7321ZM79.0481 11.8352C78.8046 9.96909 78.4858 8.4891 78.0916 7.39518C77.6974 6.30127 77.2336 5.54518 76.7003 5.12692C76.167 4.70866 75.622 4.49953 75.0655 4.49953C74.509 4.49953 73.9641 4.70866 73.4307 5.12692C72.8974 5.54518 72.4336 6.30127 72.0394 7.39518C71.6452 8.4891 71.3264 9.96909 71.0829 11.8352C70.8394 13.7013 70.7177 16.0821 70.7177 18.9778C70.7177 21.8734 70.8394 24.2543 71.0829 26.1204C71.3264 27.9865 71.6452 29.4665 72.0394 30.5604C72.4336 31.6543 72.8974 32.4104 73.4307 32.8287C73.9641 33.2469 74.509 33.4561 75.0655 33.4561C75.622 33.4561 76.167 33.2469 76.7003 32.8287C77.2336 32.4104 77.6974 31.6543 78.0916 30.5604C78.4858 29.4665 78.8046 27.9865 79.0481 26.1204C79.2916 24.2543 79.4133 21.8734 79.4133 18.9778C79.4133 16.0821 79.2916 13.7013 79.0481 11.8352ZM60.2829 20.4256H52.9785V35.8691H49.8481V2.08651H52.9785V17.0474H60.2829V2.08651H63.4133V35.8691H60.2829V20.4256ZM43.7623 35.8691L39.4145 21.3909L35.0667 35.8691H31.9362L37.1536 18.4952L32.458 2.08651H35.5884L39.4145 15.5996L43.2406 2.08651H46.371L41.6754 18.4952L46.8928 35.8691H43.7623ZM18.1971 2.08651H30.0232V5.46477H21.3275V16.5648H28.9797V19.943H21.3275V32.4909H30.0232V35.8691H18.1971V2.08651ZM9.84928 35.8691H6.71884V5.46477H1.15363V2.08651H15.4145V5.46477H9.84928V35.8691Z" fill="white"/>
</svg>
