<svg width="78" height="62" fill="none" xmlns="http://www.w3.org/2000/svg"><path fill-rule="evenodd" clip-rule="evenodd" d="M0 45.875c0-8.907 7.22-16.126 16.125-16.126 8.906 0 16.126 7.219 16.125 16.126C32.25 54.78 25.03 62 16.125 62 7.22 62 0 54.78 0 45.875zm10.9579 5.1671a7.3058 7.3058 0 005.1671 2.1399 7.3058 7.3058 0 007.307-7.307c0-4.0355-3.2715-7.307-7.307-7.307-4.0355 0-7.307 3.2715-7.307 7.307a7.3057 7.3057 0 002.1399 5.1671zM60.854 45.874c-4.4525 0-8.062 3.6095-8.062 8.062a8.062 8.062 0 004.031 6.9819 8.0617 8.0617 0 008.062 0 8.062 8.062 0 004.031-6.9819 8.0603 8.0603 0 00-8.062-8.062zm-5.062 8.062c-.0006 2.7962 2.2658 5.0635 5.062 5.064 2.7962.0006 5.0634-2.2658 5.064-5.062.0006-2.7962-2.2658-5.0634-5.062-5.064-2.7962-.0005-5.0634 2.2658-5.064 5.062z" fill="#fff"/><path fill-rule="evenodd" clip-rule="evenodd" d="M75.437 31.313c.438 3.312 2.461 18.414 2.461 18.414s.743 3.148-2.898 3.148h-1.955c-.389-6.402-5.69-11.479-12.191-11.479s-11.801 5.077-12.191 11.479H38.499c.691-2.211 1.064-4.562 1.064-7 0-12.946-10.494-23.439-23.438-23.439a23.3275 23.3275 0 00-13.079 3.986c-.045-2.959-.042-13.885 2.266-20.255 0 0 1.063-2.542 3.438-3.167S33.5 0 33.5 0s2.314.062 3.126 1.875c.812 1.813 10.562 21.875 10.562 21.875L59 25.128v-5.295h4V14h3v11.946l5.812.679s3.078.547 3.625 4.688zm-59.312-11.48h6.958V6.167h-6.958v13.666zm16.958 0h-6.958V6.167h6.958v13.666zM49 36h4.016v-7H49v7zm11.016 0H56v-7h4.016v7zM63 36h4.016v-7H63v7z" fill="#fff"/></svg>